<svg width="471" height="405" viewBox="0 0 471 405" fill="none" xmlns="http://www.w3.org/2000/svg">
<rect width="470.036" height="405" rx="15" fill="#DFDFDF"/>
<path d="M278.13 147.071H191.907C185.104 147.071 179.589 152.586 179.589 159.389V245.611C179.589 252.414 185.104 257.929 191.907 257.929H278.13C284.932 257.929 290.447 252.414 290.447 245.611V159.389C290.447 152.586 284.932 147.071 278.13 147.071Z" stroke="#DAD3D3" stroke-width="2" stroke-linecap="round" stroke-linejoin="round"/>
<path d="M213.463 190.183C218.565 190.183 222.701 186.046 222.701 180.944C222.701 175.842 218.565 171.706 213.463 171.706C208.361 171.706 204.225 175.842 204.225 180.944C204.225 186.046 208.361 190.183 213.463 190.183Z" stroke="#DAD3D3" stroke-width="2" stroke-linecap="round" stroke-linejoin="round"/>
<path d="M290.447 220.976L259.654 190.182L191.907 257.929" stroke="#DAD3D3" stroke-width="2" stroke-linecap="round" stroke-linejoin="round"/>
</svg>
