<svg width="153" height="27" viewBox="0 0 153 27" fill="none" xmlns="http://www.w3.org/2000/svg">
<path fill-rule="evenodd" clip-rule="evenodd" d="M3.27651 25.3964C4.36174 26.0555 5.68288 26.3851 7.23994 26.3851C8.37235 26.3851 9.375 26.1968 10.2479 25.8201C11.1208 25.42 11.9937 24.8198 12.8666 24.0194C12.9137 23.9724 12.902 23.9135 12.8312 23.8429C12.7841 23.7723 12.725 23.737 12.6543 23.737H12.6189C11.9111 24.0665 11.3213 24.3019 10.8495 24.4431C10.4012 24.5844 9.85863 24.655 9.22165 24.655C7.31072 24.655 5.9188 24.0783 5.0459 22.9249C4.173 21.748 3.73655 20.1826 3.73655 18.229C3.73655 16.5812 4.03145 15.2631 4.62125 14.2745C5.23463 13.2623 6.04855 12.7563 7.063 12.7563C7.58202 12.7563 7.9359 12.8858 8.12463 13.1447C8.33696 13.3801 8.54929 13.8272 8.76161 14.4864C8.97394 15.0983 9.24525 15.5573 9.57553 15.8634C9.90581 16.1458 10.3541 16.2871 10.9203 16.2871C11.5336 16.2871 12.0055 16.1341 12.3358 15.8281C12.6897 15.4985 12.8666 15.1102 12.8666 14.6629C12.8666 13.8391 12.4066 13.1917 11.4865 12.721C10.59 12.2502 9.57553 12.0148 8.44312 12.0148C7.09839 12.0148 5.77725 12.3209 4.47969 12.9328C3.20574 13.5213 2.1559 14.3804 1.33019 15.5103C0.504471 16.6166 0.0916138 17.9112 0.0916138 19.3941C0.0916138 20.571 0.351124 21.7009 0.870144 22.7837C1.41275 23.8429 2.21488 24.7139 3.27651 25.3964ZM31.5091 25.7495C31.5091 25.6083 31.4618 25.5377 31.3675 25.5377C30.6361 25.5377 30.1289 25.3729 29.8458 25.0434C29.5863 24.6903 29.4566 24.043 29.4566 23.1014V16.3224C29.4566 15.0042 29.0791 13.945 28.3242 13.1447C27.5928 12.3209 26.5902 11.9089 25.3162 11.9089C23.4053 11.9089 21.6123 12.8739 19.9373 14.8041V0.822282C19.9373 0.728128 19.8665 0.633974 19.7249 0.53982C19.6069 0.422128 19.489 0.363281 19.3711 0.363281L19.1941 0.398589L14.0275 2.83482C13.9803 2.85836 13.9803 2.94074 14.0275 3.08197C14.0983 3.19966 14.1691 3.25851 14.2398 3.25851H14.2752C14.8414 2.99959 15.2896 2.87013 15.62 2.87013C15.9974 2.87013 16.2569 3.04667 16.3985 3.39974C16.5636 3.75282 16.6462 4.34129 16.6462 5.16513V23.1014C16.6462 24.043 16.5047 24.6903 16.2216 25.0434C15.962 25.3729 15.4666 25.5377 14.7353 25.5377C14.688 25.5377 14.6645 25.6083 14.6645 25.7495C14.6645 25.8907 14.688 25.9614 14.7353 25.9614C15.3486 25.9614 15.8323 25.9496 16.1862 25.9261L18.3094 25.8907L20.3619 25.9261C20.7393 25.9496 21.2348 25.9614 21.8482 25.9614C21.9425 25.9614 21.9898 25.8907 21.9898 25.7495C21.9898 25.6083 21.9425 25.5377 21.8482 25.5377C21.1168 25.5377 20.6096 25.3729 20.3265 25.0434C20.067 24.6903 19.9373 24.043 19.9373 23.1014V15.5809C20.3855 15.1808 20.9045 14.863 21.4943 14.6276C22.1077 14.3922 22.6975 14.2745 23.2637 14.2745C24.2546 14.2745 24.9859 14.5805 25.4578 15.1925C25.9296 15.8045 26.1655 16.7461 26.1655 18.0171V23.1014C26.1655 24.043 26.024 24.6903 25.7409 25.0434C25.4813 25.3729 24.9859 25.5377 24.2546 25.5377C24.2073 25.5377 24.1838 25.6083 24.1838 25.7495C24.1838 25.8907 24.2073 25.9614 24.2546 25.9614C24.8679 25.9614 25.3516 25.9496 25.7055 25.9261L27.8287 25.8907L29.8812 25.9261C30.2586 25.9496 30.7541 25.9614 31.3675 25.9614C31.4618 25.9614 31.5091 25.8907 31.5091 25.7495ZM47.0014 24.2313C46.9778 24.1136 46.9189 24.0547 46.8245 24.0547H46.7891C46.4352 24.2195 46.0931 24.3019 45.7628 24.3019C45.3146 24.3019 44.9607 24.1136 44.7012 23.737C44.4653 23.3603 44.3473 22.8307 44.3473 22.1481V15.8987C44.3473 14.6276 43.9935 13.6625 43.2857 13.0034C42.6016 12.3443 41.705 12.0148 40.5962 12.0148C39.7469 12.0148 38.7561 12.2149 37.6237 12.6151C36.4912 13.0152 35.524 13.5331 34.7219 14.1686C33.9197 14.8041 33.5187 15.4397 33.5187 16.0752C33.5187 17.0402 34.0731 17.5228 35.1819 17.5228C36.4322 17.5228 37.1282 16.8637 37.2698 15.5456C37.3406 14.5805 37.5411 13.8861 37.8714 13.4624C38.2016 13.0387 38.6499 12.8269 39.2161 12.8269C39.8531 12.8269 40.3131 13.1682 40.5962 13.8508C40.8793 14.5099 41.0209 15.5456 41.0209 16.9579V19.7472L37.4113 20.9124C36.3025 21.289 35.4886 21.5949 34.9696 21.8304C34.4741 22.0422 34.0849 22.3129 33.8018 22.6424C33.5423 22.9719 33.4125 23.4075 33.4125 23.9488C33.4125 24.6785 33.6248 25.2435 34.0495 25.6436C34.4978 26.0202 35.0994 26.2085 35.8543 26.2085C36.3733 26.2085 36.9631 26.1143 37.6237 25.9261C38.2843 25.7142 38.9212 25.4553 39.5346 25.1493L41.1624 24.2666C41.304 24.8786 41.5399 25.3611 41.8702 25.7142C42.2241 26.0673 42.5779 26.2438 42.9318 26.2438C43.0734 26.2438 43.1913 26.2202 43.2857 26.1732L46.9306 24.4431C47.025 24.3961 47.0486 24.3255 47.0014 24.2313ZM41.0209 22.9602C41.0209 23.2897 41.0326 23.5369 41.0563 23.7017L40.5962 23.9488C39.9121 24.2783 39.3105 24.4431 38.7915 24.4431C38.3668 24.4431 38.0129 24.3019 37.7298 24.0194C37.4467 23.737 37.3052 23.3486 37.3052 22.8543C37.3052 22.4542 37.435 22.1128 37.6944 21.8304C37.9775 21.5479 38.4376 21.289 39.0746 21.0536L41.0209 20.3474V22.9602ZM73.8925 25.7495C73.8925 25.6083 73.8453 25.5377 73.7509 25.5377C73.0196 25.5377 72.5123 25.3729 72.2292 25.0434C71.9698 24.6903 71.84 24.043 71.84 23.1014V16.3224C71.84 14.8394 71.498 13.7332 70.8137 13.0034C70.1532 12.2737 69.1859 11.9089 67.9119 11.9089C65.9302 11.9089 64.1254 12.9564 62.4976 15.0513C62.3561 14.0391 61.955 13.2623 61.2944 12.721C60.6339 12.1796 59.7492 11.9089 58.6403 11.9089C56.8002 11.9089 55.078 12.8622 53.4737 14.7688C53.4266 13.9214 53.285 13.2506 53.0491 12.7563C52.8132 12.2384 52.5655 11.9795 52.3059 11.9795C52.2824 11.9795 52.1998 12.0031 52.0582 12.0501L47.1393 14.4511C47.0922 14.4746 47.0804 14.5452 47.1039 14.6629C47.1512 14.7806 47.2101 14.8394 47.2809 14.8394H47.3516C48.083 14.5099 48.6492 14.3451 49.0503 14.3451C49.4278 14.3451 49.6991 14.5217 49.8642 14.8747C50.053 15.2042 50.1473 15.7339 50.1473 16.4636V23.1014C50.1473 24.043 50.0176 24.6903 49.758 25.0434C49.4985 25.3729 49.0031 25.5377 48.2717 25.5377C48.201 25.5377 48.1656 25.6083 48.1656 25.7495C48.1656 25.8907 48.201 25.9614 48.2717 25.9614C48.8852 25.9614 49.3687 25.9496 49.7226 25.9261L51.8105 25.8907L53.9338 25.9261C54.2876 25.9496 54.7713 25.9614 55.3847 25.9614C55.4554 25.9614 55.4908 25.8907 55.4908 25.7495C55.4908 25.6083 55.4554 25.5377 55.3847 25.5377C54.6534 25.5377 54.1461 25.3729 53.863 25.0434C53.6035 24.6903 53.4737 24.043 53.4737 23.1014V15.5456C53.8984 15.1455 54.382 14.8394 54.9246 14.6276C55.4908 14.3922 56.057 14.2745 56.6232 14.2745C57.5198 14.2745 58.1803 14.5805 58.605 15.1925C59.0532 15.8045 59.2773 16.7461 59.2773 18.0171V23.1014C59.2773 24.043 59.1358 24.6903 58.8527 25.0434C58.5932 25.3729 58.0978 25.5377 57.3664 25.5377C57.2956 25.5377 57.2602 25.6083 57.2602 25.7495C57.2602 25.8907 57.2956 25.9614 57.3664 25.9614C57.9798 25.9614 58.4753 25.9496 58.8527 25.9261L60.9052 25.8907L63.0284 25.9261C63.3823 25.9496 63.866 25.9614 64.4793 25.9614C64.5737 25.9614 64.6209 25.8907 64.6209 25.7495C64.6209 25.6083 64.5737 25.5377 64.4793 25.5377C63.748 25.5377 63.2407 25.3729 62.9576 25.0434C62.6982 24.6903 62.5684 24.043 62.5684 23.1014V15.934V15.7221C62.993 15.2749 63.5003 14.9218 64.0901 14.6629C64.6799 14.404 65.2815 14.2745 65.8948 14.2745C66.7914 14.2745 67.4519 14.5805 67.8765 15.1925C68.3248 15.8045 68.5489 16.7461 68.5489 18.0171V23.1014C68.5489 24.043 68.4074 24.6903 68.1243 25.0434C67.8648 25.3729 67.3693 25.5377 66.638 25.5377C66.5672 25.5377 66.5318 25.6083 66.5318 25.7495C66.5318 25.8907 66.5672 25.9614 66.638 25.9614C67.2514 25.9614 67.7469 25.9496 68.1243 25.9261L70.1768 25.8907L72.3 25.9261C72.6539 25.9496 73.1376 25.9614 73.7509 25.9614C73.8453 25.9614 73.8925 25.8907 73.8925 25.7495ZM78.9297 25.4317C80.0386 26.0909 81.3243 26.4204 82.787 26.4204C84.179 26.4204 85.4647 26.1143 86.6442 25.5024C87.8474 24.8904 88.8029 24.043 89.5106 22.9602C90.2184 21.8539 90.5723 20.5946 90.5723 19.1823C90.5723 17.9112 90.2774 16.7225 89.6876 15.6162C89.1214 14.4864 88.2957 13.5801 87.2104 12.8975C86.1253 12.2149 84.8513 11.8736 83.3886 11.8736C82.1146 11.8736 80.876 12.1443 79.6729 12.6857C78.4697 13.2035 77.4788 14.0038 76.7003 15.0866C75.9217 16.1458 75.5325 17.4405 75.5325 18.9704C75.5325 20.3121 75.8275 21.5596 76.4172 22.7131C77.007 23.8429 77.8445 24.7492 78.9297 25.4317ZM85.9365 24.3372C85.4647 25.2316 84.7687 25.6789 83.8486 25.6789C83.0229 25.6789 82.268 25.3494 81.5838 24.6903C80.8997 24.0077 80.3571 23.0661 79.9559 21.8657C79.5549 20.6416 79.3544 19.2412 79.3544 17.6641C79.3544 14.2981 80.2981 12.6151 82.1854 12.6151C82.9639 12.6151 83.6953 12.9211 84.3794 13.5331C85.0636 14.1215 85.618 15.0042 86.0426 16.1811C86.4673 17.358 86.6796 18.7703 86.6796 20.4181C86.6796 22.1128 86.4319 23.4192 85.9365 24.3372ZM118.714 25.7495C118.714 25.6083 118.668 25.5377 118.573 25.5377C117.842 25.5377 117.334 25.3729 117.051 25.0434C116.792 24.6903 116.662 24.043 116.662 23.1014V16.3224C116.662 14.8394 116.321 13.7332 115.636 13.0034C114.976 12.2737 114.008 11.9089 112.734 11.9089C110.752 11.9089 108.947 12.9564 107.32 15.0513C107.178 14.0391 106.777 13.2623 106.116 12.721C105.457 12.1796 104.572 11.9089 103.463 11.9089C101.622 11.9089 99.9002 12.8622 98.296 14.7688C98.2488 13.9214 98.1073 13.2506 97.8713 12.7563C97.6354 12.2384 97.3876 11.9795 97.1282 11.9795C97.1045 11.9795 97.022 12.0031 96.8805 12.0501L91.9616 14.4511C91.9144 14.4746 91.9025 14.5452 91.9262 14.6629C91.9733 14.7806 92.0323 14.8394 92.1031 14.8394H92.1739C92.9053 14.5099 93.4715 14.3451 93.8725 14.3451C94.25 14.3451 94.5212 14.5217 94.6864 14.8747C94.8751 15.2042 94.9695 15.7339 94.9695 16.4636V23.1014C94.9695 24.043 94.8397 24.6903 94.5803 25.0434C94.3208 25.3729 93.8253 25.5377 93.094 25.5377C93.0232 25.5377 92.9878 25.6083 92.9878 25.7495C92.9878 25.8907 93.0232 25.9614 93.094 25.9614C93.7073 25.9614 94.191 25.9496 94.5449 25.9261L96.6327 25.8907L98.756 25.9261C99.1099 25.9496 99.5936 25.9614 100.207 25.9614C100.278 25.9614 100.313 25.8907 100.313 25.7495C100.313 25.6083 100.278 25.5377 100.207 25.5377C99.4755 25.5377 98.9683 25.3729 98.6852 25.0434C98.4258 24.6903 98.296 24.043 98.296 23.1014V15.5456C98.7206 15.1455 99.2043 14.8394 99.7469 14.6276C100.313 14.3922 100.879 14.2745 101.445 14.2745C102.342 14.2745 103.003 14.5805 103.427 15.1925C103.875 15.8045 104.099 16.7461 104.099 18.0171V23.1014C104.099 24.043 103.958 24.6903 103.675 25.0434C103.415 25.3729 102.92 25.5377 102.189 25.5377C102.118 25.5377 102.082 25.6083 102.082 25.7495C102.082 25.8907 102.118 25.9614 102.189 25.9614C102.802 25.9614 103.297 25.9496 103.675 25.9261L105.727 25.8907L107.85 25.9261C108.204 25.9496 108.688 25.9614 109.301 25.9614C109.396 25.9614 109.443 25.8907 109.443 25.7495C109.443 25.6083 109.396 25.5377 109.301 25.5377C108.571 25.5377 108.063 25.3729 107.78 25.0434C107.521 24.6903 107.39 24.043 107.39 23.1014V15.934V15.7221C107.815 15.2749 108.323 14.9218 108.912 14.6629C109.502 14.404 110.104 14.2745 110.717 14.2745C111.614 14.2745 112.274 14.5805 112.699 15.1925C113.147 15.8045 113.371 16.7461 113.371 18.0171V23.1014C113.371 24.043 113.229 24.6903 112.946 25.0434C112.687 25.3729 112.192 25.5377 111.46 25.5377C111.389 25.5377 111.354 25.6083 111.354 25.7495C111.354 25.8907 111.389 25.9614 111.46 25.9614C112.074 25.9614 112.57 25.9496 112.946 25.9261L114.999 25.8907L117.122 25.9261C117.476 25.9496 117.96 25.9614 118.573 25.9614C118.668 25.9614 118.714 25.8907 118.714 25.7495ZM120.496 25.7495C120.496 25.8907 120.532 25.9614 120.603 25.9614C121.216 25.9614 121.7 25.9496 122.053 25.9261L124.141 25.8907L126.265 25.9261C126.618 25.9496 127.102 25.9614 127.715 25.9614C127.786 25.9614 127.822 25.8907 127.822 25.7495C127.822 25.6083 127.786 25.5377 127.715 25.5377C126.984 25.5377 126.477 25.3729 126.194 25.0434C125.935 24.6903 125.805 24.043 125.805 23.1014V16.7107C125.805 15.3455 125.828 14.1922 125.875 13.2506V12.4738C125.875 12.3796 125.816 12.2737 125.698 12.1561C125.581 12.0384 125.462 11.9795 125.344 11.9795L125.238 12.0148L119.895 14.4864C119.824 14.5099 119.813 14.5923 119.859 14.7335C119.906 14.8512 119.977 14.9101 120.072 14.9101H120.107C120.673 14.6512 121.109 14.5217 121.416 14.5217C121.794 14.5217 122.065 14.6982 122.23 15.0513C122.396 15.4044 122.478 15.981 122.478 16.7814V23.1014C122.478 24.043 122.348 24.6903 122.089 25.0434C121.83 25.3729 121.334 25.5377 120.603 25.5377C120.532 25.5377 120.496 25.6083 120.496 25.7495ZM129.687 25.7495C129.687 25.8907 129.71 25.9614 129.758 25.9614C130.371 25.9614 130.855 25.9496 131.208 25.9261L133.332 25.8907L135.49 25.9261C135.844 25.9496 136.316 25.9614 136.906 25.9614C137 25.9614 137.047 25.8907 137.047 25.7495C137.047 25.6083 137 25.5377 136.906 25.5377C136.174 25.5377 135.679 25.3729 135.42 25.0434C135.159 24.6903 135.03 24.043 135.03 23.1014V0.822282C135.03 0.728128 134.96 0.633974 134.818 0.53982C134.676 0.422128 134.546 0.363281 134.429 0.363281L134.287 0.398589L129.085 2.83482C129.037 2.85836 129.037 2.94074 129.085 3.08197C129.156 3.19966 129.227 3.25851 129.298 3.25851H129.333C129.922 2.99959 130.371 2.87013 130.678 2.87013C131.054 2.87013 131.315 3.04667 131.456 3.39974C131.621 3.75282 131.704 4.34129 131.704 5.16513L131.668 23.1014C131.668 24.043 131.527 24.6903 131.244 25.0434C130.984 25.3729 130.488 25.5377 129.758 25.5377C129.71 25.5377 129.687 25.6083 129.687 25.7495ZM151.859 23.7723C151.812 23.6781 151.766 23.6311 151.718 23.6311L151.647 23.6664C151.129 23.9959 150.55 24.243 149.913 24.4078C149.276 24.5726 148.663 24.655 148.073 24.655C146.398 24.655 145.077 24.0665 144.109 22.8896C143.166 21.7127 142.694 20.112 142.694 18.0877C142.694 17.5464 142.729 17.0521 142.8 16.6048L149.17 16.5342H151.328C151.589 16.5342 151.718 16.1929 151.718 15.5103C151.718 14.4275 151.328 13.5801 150.55 12.9681C149.771 12.3326 148.651 12.0148 147.188 12.0148C145.679 12.0148 144.31 12.3562 143.083 13.0387C141.857 13.6979 140.889 14.6159 140.181 15.7927C139.474 16.9462 139.12 18.2054 139.12 19.5707C139.12 20.7711 139.403 21.901 139.969 22.9602C140.535 23.9959 141.362 24.8315 142.446 25.4671C143.532 26.079 144.817 26.3851 146.303 26.3851C147.365 26.3851 148.344 26.1968 149.241 25.8201C150.138 25.4435 151.022 24.8315 151.895 23.9841C151.943 23.9371 151.93 23.8665 151.859 23.7723ZM144.039 13.5684C144.558 13.0034 145.171 12.721 145.879 12.721C147.177 12.721 147.86 13.7449 147.931 15.7927L142.906 15.8987C143.142 14.9101 143.52 14.1333 144.039 13.5684Z" fill="black"/>
<path d="M120.741 7.26904C120.631 9.24258 122.059 10.8872 123.818 10.4486C124.001 9.38877 123.642 7.26904 120.741 7.26904Z" fill="black"/>
<path d="M124.394 4.15799C122.918 5.47604 122.762 7.64681 124.316 8.57709C125.197 7.95685 126.445 6.20469 124.394 4.15799Z" fill="black"/>
<path d="M128.157 7.27496C126.179 7.16542 124.53 8.59073 124.97 10.3449C126.032 10.5276 128.157 10.1694 128.157 7.27496Z" fill="black"/>
</svg>
