<svg width="34" height="19" viewBox="0 0 34 19" fill="none" xmlns="http://www.w3.org/2000/svg">
<path d="M11.7244 0.545454H14.8864V11.9489C14.8864 13.1989 14.5909 14.2983 14 15.2472C13.4148 16.196 12.5909 16.9375 11.5284 17.4716C10.4659 18 9.22443 18.2642 7.80398 18.2642C6.37784 18.2642 5.13352 18 4.07102 17.4716C3.00852 16.9375 2.18466 16.196 1.59943 15.2472C1.0142 14.2983 0.721591 13.1989 0.721591 11.9489V0.545454H3.88352V11.6847C3.88352 12.4119 4.04261 13.0597 4.3608 13.6278C4.68466 14.196 5.1392 14.642 5.72443 14.9659C6.30966 15.2841 7.00284 15.4432 7.80398 15.4432C8.60511 15.4432 9.2983 15.2841 9.88352 14.9659C10.4744 14.642 10.929 14.196 11.2472 13.6278C11.5653 13.0597 11.7244 12.4119 11.7244 11.6847V0.545454ZM20.5646 18H17.1896L23.3345 0.545454H27.2379L33.3913 18H30.0163L25.3544 4.125H25.218L20.5646 18ZM20.6754 11.1562H29.88V13.696H20.6754V11.1562Z" fill="black"/>
</svg>
