<svg width="32" height="29" viewBox="0 0 32 29" fill="none" xmlns="http://www.w3.org/2000/svg">
<g clip-path="url(#clip0_88_4789)">
<path d="M16 1.93784V27.7012" stroke="black" stroke-width="2" stroke-linecap="round" stroke-linejoin="round"/>
<path d="M22.6667 6.6221H12.6667C11.429 6.6221 10.242 7.05393 9.36684 7.82259C8.49167 8.59125 8 9.63377 8 10.7208C8 11.8079 8.49167 12.8504 9.36684 13.6191C10.242 14.3877 11.429 14.8195 12.6667 14.8195H19.3333C20.571 14.8195 21.758 15.2514 22.6332 16.02C23.5083 16.7887 24 17.8312 24 18.9183C24 20.0053 23.5083 21.0478 22.6332 21.8165C21.758 22.5852 20.571 23.017 19.3333 23.017H8" stroke="black" stroke-width="2" stroke-linecap="round" stroke-linejoin="round"/>
</g>
<defs>
<clipPath id="clip0_88_4789">
<rect width="32" height="28.1055" fill="white" transform="translate(0 0.766785)"/>
</clipPath>
</defs>
</svg>
