<svg width="37" height="57" viewBox="0 0 37 57" fill="none" xmlns="http://www.w3.org/2000/svg">
<mask id="path-1-inside-1_296_1589" fill="white">
<path d="M7 16.2264V48.8572L30 49.123V16L20 4C19.5616 3.49343 19.0664 3 18.5 3C17.9336 3 17.4384 3.49343 17 4L7 16.2264ZM21.6075 2.56806L31.5484 14.0621C31.6893 14.2246 31.803 14.4293 31.8811 14.6614C31.9592 14.8936 31.9998 15.1474 32 15.4044V49.2658C32 49.7258 31.8707 50.1669 31.6405 50.4921C31.4104 50.8173 31.0982 51 30.7727 51H6.22727C5.90178 51 5.58962 50.8173 5.35946 50.4921C5.1293 50.1669 5 49.7258 5 49.2658V15.4044C4.99988 15.1476 5.04011 14.894 5.11779 14.6619C5.19547 14.4298 5.30866 14.2249 5.44918 14.0621L15.3901 2.56806C16.2672 1.55402 17.3655 1 18.4988 1C19.632 1 20.7304 1.55402 21.6075 2.56806Z"/>
<path d="M7 16.2264V48.8572L30 49.123V16L20 4C19.5616 3.49343 19.0664 3 18.5 3C17.9336 3 17.4384 3.49343 17 4L7 16.2264Z"/>
</mask>
<path d="M7 16.2264V48.8572L30 49.123V16L20 4C19.5616 3.49343 19.0664 3 18.5 3C17.9336 3 17.4384 3.49343 17 4L7 16.2264ZM21.6075 2.56806L31.5484 14.0621C31.6893 14.2246 31.803 14.4293 31.8811 14.6614C31.9592 14.8936 31.9998 15.1474 32 15.4044V49.2658C32 49.7258 31.8707 50.1669 31.6405 50.4921C31.4104 50.8173 31.0982 51 30.7727 51H6.22727C5.90178 51 5.58962 50.8173 5.35946 50.4921C5.1293 50.1669 5 49.7258 5 49.2658V15.4044C4.99988 15.1476 5.04011 14.894 5.11779 14.6619C5.19547 14.4298 5.30866 14.2249 5.44918 14.0621L15.3901 2.56806C16.2672 1.55402 17.3655 1 18.4988 1C19.632 1 20.7304 1.55402 21.6075 2.56806Z" fill="#E60707"/>
<path d="M7 16.2264V48.8572L30 49.123V16L20 4C19.5616 3.49343 19.0664 3 18.5 3C17.9336 3 17.4384 3.49343 17 4L7 16.2264Z" fill="#FF0000" fill-opacity="0.76"/>
<path d="M7 16.2264L6.61297 15.9098L6.5 16.048V16.2264H7ZM7 48.8572H6.5V49.3514L6.99422 49.3572L7 48.8572ZM30 49.123L29.9942 49.623L30.5 49.6288V49.123H30ZM30 16H30.5V15.819L30.3841 15.6799L30 16ZM20 4L20.3842 3.67985L20.3781 3.67278L20 4ZM18.5 3V3.5V3ZM17 4L16.6218 3.67266L16.613 3.68345L17 4ZM6.5 16.2264V48.8572H7.5V16.2264H6.5ZM6.99422 49.3572L29.9942 49.623L30.0058 48.6231L7.00578 48.3572L6.99422 49.3572ZM30.5 49.123V16H29.5V49.123H30.5ZM30.3841 15.6799L20.3841 3.67991L19.6159 4.32009L29.6159 16.3201L30.3841 15.6799ZM20.3781 3.67278C20.1549 3.41495 19.8924 3.13044 19.5976 2.90975C19.3023 2.68873 18.9328 2.5 18.5 2.5V3.5C18.6336 3.5 18.7948 3.55798 18.9983 3.71032C19.2023 3.86299 19.4066 4.07847 19.6219 4.32722L20.3781 3.67278ZM18.5 2.5C18.0672 2.5 17.6977 2.68873 17.4024 2.90975C17.1076 3.13044 16.8451 3.41495 16.6219 3.67278L17.3781 4.32722C17.5934 4.07847 17.7977 3.86299 18.0017 3.71032C18.2052 3.55798 18.3664 3.5 18.5 3.5V2.5ZM16.613 3.68345L6.61297 15.9098L7.38703 16.5429L17.387 4.31655L16.613 3.68345ZM21.6075 2.56806L22.3638 1.9139L22.3638 1.91387L21.6075 2.56806ZM31.5484 14.0621L30.792 14.7163L30.7931 14.7176L31.5484 14.0621ZM32 15.4044H33V15.4037L32 15.4044ZM5 15.4044H6L6 15.4039L5 15.4044ZM5.44918 14.0621L4.69282 13.408L4.69221 13.4087L5.44918 14.0621ZM15.3901 2.56806L14.6338 1.91387L14.6337 1.9139L15.3901 2.56806ZM18.4988 1V2V1ZM20.8511 3.22221L30.792 14.7163L32.3047 13.408L22.3638 1.9139L20.8511 3.22221ZM30.7931 14.7176C30.8375 14.7687 30.8911 14.8548 30.9333 14.9803L32.8289 14.3425C32.7149 14.0038 32.5412 13.6804 32.3036 13.4067L30.7931 14.7176ZM30.9333 14.9803C30.9752 15.1049 30.9999 15.2508 31 15.4051L33 15.4037C32.9998 15.0439 32.9432 14.6822 32.8289 14.3425L30.9333 14.9803ZM31 15.4044V49.2658H33V15.4044H31ZM31 49.2658C31 49.5519 30.9171 49.7832 30.8243 49.9144L32.4568 51.0697C32.8243 50.5505 33 49.8997 33 49.2658H31ZM30.8243 49.9144C30.7805 49.9763 30.7466 49.9995 30.7373 50.005C30.7302 50.0091 30.7437 50 30.7727 50V52C31.4969 52 32.0866 51.5929 32.4568 51.0697L30.8243 49.9144ZM30.7727 50H6.22727V52H30.7727V50ZM6.22727 50C6.25631 50 6.26978 50.0091 6.26275 50.005C6.25341 49.9995 6.2195 49.9763 6.17573 49.9144L4.54319 51.0697C4.91339 51.5929 5.50308 52 6.22727 52V50ZM6.17573 49.9144C6.08286 49.7832 6 49.5519 6 49.2658H4C4 49.8997 4.17574 50.5505 4.54319 51.0697L6.17573 49.9144ZM6 49.2658V15.4044H4V49.2658H6ZM6 15.4039C5.99993 15.2499 6.02436 15.104 6.0661 14.9793L4.16948 14.3446C4.05586 14.6841 3.99983 15.0454 4 15.4049L6 15.4039ZM6.0661 14.9793C6.10815 14.8536 6.16162 14.7672 6.20616 14.7156L4.69221 13.4087C4.4557 13.6827 4.28279 14.006 4.16948 14.3446L6.0661 14.9793ZM6.20554 14.7163L16.1465 3.22221L14.6337 1.9139L4.69282 13.408L6.20554 14.7163ZM16.1464 3.22224C16.8718 2.38355 17.7097 2 18.4988 2V0C17.0213 0 15.6625 0.724494 14.6338 1.91387L16.1464 3.22224ZM18.4988 2C19.2878 2 20.1257 2.38355 20.8511 3.22224L22.3638 1.91387C21.3351 0.724494 19.9762 0 18.4988 0V2Z" fill="white" mask="url(#path-1-inside-1_296_1589)"/>
<path fill-rule="evenodd" clip-rule="evenodd" d="M19 19C17.9391 19 16.9217 18.5786 16.1716 17.8284C15.4214 17.0783 15 16.0609 15 15C15 13.9391 15.4214 12.9217 16.1716 12.1716C16.9217 11.4214 17.9391 11 19 11C20.0609 11 21.0783 11.4214 21.8284 12.1716C22.5786 12.9217 23 13.9391 23 15C23 16.0609 22.5786 17.0783 21.8284 17.8284C21.0783 18.5786 20.0609 19 19 19ZM20.4142 16.4142C20.0391 16.7893 19.5304 17 19 17C18.4696 17 17.9609 16.7893 17.5858 16.4142C17.2107 16.0391 17 15.5304 17 15C17 14.4696 17.2107 13.9609 17.5858 13.5858C17.9609 13.2107 18.4696 13 19 13C19.5304 13 20.0391 13.2107 20.4142 13.5858C20.7893 13.9609 21 14.4696 21 15C21 15.5304 20.7893 16.0391 20.4142 16.4142Z" fill="white"/>
</svg>
