<svg width="28" height="26" viewBox="0 0 28 26" fill="none" xmlns="http://www.w3.org/2000/svg">
<path d="M25.7862 3.14666C25.1052 2.46533 24.2966 1.92485 23.4066 1.5561C22.5167 1.18735 21.5628 0.997559 20.5995 0.997559C19.6362 0.997559 18.6823 1.18735 17.7924 1.5561C16.9024 1.92485 16.0938 2.46533 15.4128 3.14666L13.9995 4.55999L12.5862 3.14666C11.2106 1.77107 9.34488 0.998272 7.39951 0.998272C5.45413 0.998272 3.58843 1.77107 2.21284 3.14666C0.837251 4.52225 0.0644531 6.38795 0.0644531 8.33333C0.0644531 10.2787 0.837251 12.1444 2.21284 13.52L3.62617 14.9333L13.9995 25.3067L24.3728 14.9333L25.7862 13.52C26.4675 12.839 27.008 12.0304 27.3767 11.1405C27.7455 10.2505 27.9353 9.29664 27.9353 8.33333C27.9353 7.37001 27.7455 6.41613 27.3767 5.52619C27.008 4.63624 26.4675 3.82767 25.7862 3.14666Z" fill="#F14444"/>
</svg>
