<svg width="25" height="26" viewBox="0 0 25 26" fill="none" xmlns="http://www.w3.org/2000/svg">
<path d="M1 25C1 25 1 12.3077 1 8.61538C1 4.92308 4.56571 1 8.77143 1C12.9771 1 21.3429 1 25 1M9.45714 5.15385C13.1143 5.15385 16.5429 5.15385 19.5143 5.15385C22.4857 5.15385 23.6286 6.76923 23.6286 9.07692C23.6286 11.3846 23.6286 18.3077 23.6286 20.8462C23.6286 23.3846 22.4857 24.5385 19.5143 24.5385C16.5429 24.5385 11.7429 24.5385 9.45714 24.5385C7.17143 24.5385 5.34286 23.1538 5.34286 20.8462C5.34286 18.5385 5.34286 9.76923 5.34286 9.07692C5.34286 8.38462 5.8 5.15385 9.45714 5.15385Z" stroke="black"/>
<ellipse cx="10.5995" cy="10.6923" rx="3.42857" ry="3.46154" fill="black"/>
<ellipse cx="10.5995" cy="19.0001" rx="3.42857" ry="3.46154" fill="black"/>
<ellipse cx="18.3719" cy="14.8463" rx="3.42857" ry="3.46154" fill="black"/>
<ellipse cx="18.1429" cy="21.077" rx="1.37143" ry="1.38462" fill="black"/>
<path d="M18.5999 7.46143H17.6857C17.3199 7.46143 17.2285 7.76912 17.2285 7.92296V9.07681C17.2285 9.44604 17.5333 9.53835 17.6857 9.53835H18.5999C18.9657 9.53835 19.0571 9.23066 19.0571 9.07681V8.15373C19.0571 7.7845 18.7523 7.53835 18.5999 7.46143Z" stroke="black"/>
</svg>
