<svg width="26" height="26" viewBox="0 0 26 26" fill="none" xmlns="http://www.w3.org/2000/svg">
<path d="M1 8.2233V2.63107C1.07843 2.08738 1.56471 1 2.88235 1C4.2 1 7.19608 1 8.52941 1M8.29412 8.68932V11.9515M18.1765 8.68932V11.9515M17.9412 1H23.1176C23.7451 1.07767 25 1.51262 25 2.63107C25 3.74951 25 6.82524 25 8.2233M13 8.68932V13.8155C12.7647 14.1262 12.0118 14.6544 10.8824 14.2816M8.52941 16.3786C10.1765 17.932 14.0824 20.1068 16.5294 16.3786M1 17.5437V23.1359C1.07843 23.7573 1.56471 25 2.88235 25C4.2 25 7.03922 25 8.29412 25M17.9412 25H23.1176C23.7451 24.767 25 24.0214 25 22.9029C25 21.7845 25 18.8641 25 17.5437" stroke="black"/>
</svg>
